<svg width="1577" height="1032" xmlns="http://www.w3.org/2000/svg" xmlns:xlink="http://www.w3.org/1999/xlink" xml:space="preserve" overflow="hidden"><defs><filter id="fx0" x="-10%" y="-10%" width="120%" height="120%" filterUnits="userSpaceOnUse" primitiveUnits="userSpaceOnUse"><feComponentTransfer color-interpolation-filters="sRGB"><feFuncR type="discrete" tableValues="0.000000 0.000000"/><feFuncG type="discrete" tableValues="0.000000 0.000000"/><feFuncB type="discrete" tableValues="0.000000 0.000000"/><feFuncA type="linear" slope="0.631373" intercept="0.000000"/></feComponentTransfer><feGaussianBlur stdDeviation="6.875000 6.875000"/></filter><filter id="fx1" x="-10%" y="-10%" width="120%" height="120%" filterUnits="userSpaceOnUse" primitiveUnits="userSpaceOnUse"><feComponentTransfer color-interpolation-filters="sRGB"><feFuncR type="discrete" tableValues="0.000000 0.000000"/><feFuncG type="discrete" tableValues="0.000000 0.000000"/><feFuncB type="discrete" tableValues="0.000000 0.000000"/><feFuncA type="linear" slope="0.631373" intercept="0.000000"/></feComponentTransfer><feGaussianBlur stdDeviation="6.875000 6.875000"/></filter><filter id="fx2" x="-10%" y="-10%" width="120%" height="120%" filterUnits="userSpaceOnUse" primitiveUnits="userSpaceOnUse"><feComponentTransfer color-interpolation-filters="sRGB"><feFuncR type="discrete" tableValues="0.000000 0.000000"/><feFuncG type="discrete" tableValues="0.000000 0.000000"/><feFuncB type="discrete" tableValues="0.000000 0.000000"/><feFuncA type="linear" slope="0.631373" intercept="0.000000"/></feComponentTransfer><feGaussianBlur stdDeviation="6.875000 6.875000"/></filter><filter id="fx3" x="-10%" y="-10%" width="120%" height="120%" filterUnits="userSpaceOnUse" primitiveUnits="userSpaceOnUse"><feComponentTransfer color-interpolation-filters="sRGB"><feFuncR type="discrete" tableValues="0.000000 0.000000"/><feFuncG type="discrete" tableValues="0.000000 0.000000"/><feFuncB type="discrete" tableValues="0.000000 0.000000"/><feFuncA type="linear" slope="0.631373" intercept="0.000000"/></feComponentTransfer><feGaussianBlur stdDeviation="6.875000 6.875000"/></filter><filter id="fx4" x="-10%" y="-10%" width="120%" height="120%" filterUnits="userSpaceOnUse" primitiveUnits="userSpaceOnUse"><feComponentTransfer color-interpolation-filters="sRGB"><feFuncR type="discrete" tableValues="0.000000 0.000000"/><feFuncG type="discrete" tableValues="0.000000 0.000000"/><feFuncB type="discrete" tableValues="0.000000 0.000000"/><feFuncA type="linear" slope="0.631373" intercept="0.000000"/></feComponentTransfer><feGaussianBlur stdDeviation="6.875000 6.875000"/></filter><filter id="fx5" x="-10%" y="-10%" width="120%" height="120%" filterUnits="userSpaceOnUse" primitiveUnits="userSpaceOnUse"><feComponentTransfer color-interpolation-filters="sRGB"><feFuncR type="discrete" tableValues="0.000000 0.000000"/><feFuncG type="discrete" tableValues="0.000000 0.000000"/><feFuncB type="discrete" tableValues="0.000000 0.000000"/><feFuncA type="linear" slope="0.631373" intercept="0.000000"/></feComponentTransfer><feGaussianBlur stdDeviation="6.875000 6.875000"/></filter><filter id="fx6" x="-10%" y="-10%" width="120%" height="120%" filterUnits="userSpaceOnUse" primitiveUnits="userSpaceOnUse"><feComponentTransfer color-interpolation-filters="sRGB"><feFuncR type="discrete" tableValues="0.000000 0.000000"/><feFuncG type="discrete" tableValues="0.000000 0.000000"/><feFuncB type="discrete" tableValues="0.000000 0.000000"/><feFuncA type="linear" slope="0.631373" intercept="0.000000"/></feComponentTransfer><feGaussianBlur stdDeviation="6.875000 6.875000"/></filter><filter id="fx7" x="-10%" y="-10%" width="120%" height="120%" filterUnits="userSpaceOnUse" primitiveUnits="userSpaceOnUse"><feComponentTransfer color-interpolation-filters="sRGB"><feFuncR type="discrete" tableValues="0.000000 0.000000"/><feFuncG type="discrete" tableValues="0.000000 0.000000"/><feFuncB type="discrete" tableValues="0.000000 0.000000"/><feFuncA type="linear" slope="0.631373" intercept="0.000000"/></feComponentTransfer><feGaussianBlur stdDeviation="6.875000 6.875000"/></filter><filter id="fx8" x="-10%" y="-10%" width="120%" height="120%" filterUnits="userSpaceOnUse" primitiveUnits="userSpaceOnUse"><feComponentTransfer color-interpolation-filters="sRGB"><feFuncR type="discrete" tableValues="0.125490 0.125490"/><feFuncG type="discrete" tableValues="0.137255 0.137255"/><feFuncB type="discrete" tableValues="0.141176 0.141176"/><feFuncA type="linear" slope="0.400000" intercept="0.000000"/></feComponentTransfer><feGaussianBlur stdDeviation="1.725431 1.725431"/></filter><filter id="fx9" x="-10%" y="-10%" width="120%" height="120%" filterUnits="userSpaceOnUse" primitiveUnits="userSpaceOnUse"><feComponentTransfer color-interpolation-filters="sRGB"><feFuncR type="discrete" tableValues="0.000000 0.000000"/><feFuncG type="discrete" tableValues="0.000000 0.000000"/><feFuncB type="discrete" tableValues="0.000000 0.000000"/><feFuncA type="linear" slope="0.631373" intercept="0.000000"/></feComponentTransfer><feGaussianBlur stdDeviation="6.875000 6.875000"/></filter><filter id="fx10" x="-10%" y="-10%" width="120%" height="120%" filterUnits="userSpaceOnUse" primitiveUnits="userSpaceOnUse"><feComponentTransfer color-interpolation-filters="sRGB"><feFuncR type="discrete" tableValues="0.000000 0.000000"/><feFuncG type="discrete" tableValues="0.000000 0.000000"/><feFuncB type="discrete" tableValues="0.000000 0.000000"/><feFuncA type="linear" slope="0.631373" intercept="0.000000"/></feComponentTransfer><feGaussianBlur stdDeviation="6.875000 6.875000"/></filter><filter id="fx11" x="-10%" y="-10%" width="120%" height="120%" filterUnits="userSpaceOnUse" primitiveUnits="userSpaceOnUse"><feComponentTransfer color-interpolation-filters="sRGB"><feFuncR type="discrete" tableValues="0.000000 0.000000"/><feFuncG type="discrete" tableValues="0.000000 0.000000"/><feFuncB type="discrete" tableValues="0.000000 0.000000"/><feFuncA type="linear" slope="0.631373" intercept="0.000000"/></feComponentTransfer><feGaussianBlur stdDeviation="6.875000 6.875000"/></filter><filter id="fx12" x="-10%" y="-10%" width="120%" height="120%" filterUnits="userSpaceOnUse" primitiveUnits="userSpaceOnUse"><feComponentTransfer color-interpolation-filters="sRGB"><feFuncR type="discrete" tableValues="0.000000 0.000000"/><feFuncG type="discrete" tableValues="0.000000 0.000000"/><feFuncB type="discrete" tableValues="0.000000 0.000000"/><feFuncA type="linear" slope="0.631373" intercept="0.000000"/></feComponentTransfer><feGaussianBlur stdDeviation="6.875000 6.875000"/></filter><filter id="fx13" x="-10%" y="-10%" width="120%" height="120%" filterUnits="userSpaceOnUse" primitiveUnits="userSpaceOnUse"><feComponentTransfer color-interpolation-filters="sRGB"><feFuncR type="discrete" tableValues="0.000000 0.000000"/><feFuncG type="discrete" tableValues="0.000000 0.000000"/><feFuncB type="discrete" tableValues="0.000000 0.000000"/><feFuncA type="linear" slope="0.631373" intercept="0.000000"/></feComponentTransfer><feGaussianBlur stdDeviation="6.875000 6.875000"/></filter><filter id="fx14" x="-10%" y="-10%" width="120%" height="120%" filterUnits="userSpaceOnUse" primitiveUnits="userSpaceOnUse"><feComponentTransfer color-interpolation-filters="sRGB"><feFuncR type="discrete" tableValues="0.000000 0.000000"/><feFuncG type="discrete" tableValues="0.000000 0.000000"/><feFuncB type="discrete" tableValues="0.000000 0.000000"/><feFuncA type="linear" slope="0.631373" intercept="0.000000"/></feComponentTransfer><feGaussianBlur stdDeviation="6.875000 6.875000"/></filter><clipPath id="clip15"><rect x="1.37488" y="1.25006" width="467.25" height="208.25"/></clipPath><linearGradient x1="1462" y1="947" x2="1462" y2="1114" gradientUnits="userSpaceOnUse" spreadMethod="reflect" id="fill16"><stop offset="0" stop-color="#F29063" stop-opacity="1"/><stop offset="0.5" stop-color="#F6803F" stop-opacity="1"/><stop offset="1" stop-color="#E46E2D" stop-opacity="1"/></linearGradient><clipPath id="clip17"><rect x="1.37488" y="1.24988" width="467.25" height="208.25"/></clipPath><linearGradient x1="1462" y1="1241" x2="1462" y2="1408" gradientUnits="userSpaceOnUse" spreadMethod="reflect" id="fill18"><stop offset="0" stop-color="#5A81B1" stop-opacity="1"/><stop offset="0.5" stop-color="#3770AA" stop-opacity="1"/><stop offset="1" stop-color="#2B639B" stop-opacity="1"/></linearGradient><clipPath id="clip19"><rect x="1.375" y="1.25012" width="468.25" height="208.25"/></clipPath><linearGradient x1="2565.5" y1="949" x2="2565.5" y2="1116" gradientUnits="userSpaceOnUse" spreadMethod="reflect" id="fill20"><stop offset="0" stop-color="#5A81B1" stop-opacity="1"/><stop offset="0.5" stop-color="#3770AA" stop-opacity="1"/><stop offset="1" stop-color="#2B639B" stop-opacity="1"/></linearGradient><clipPath id="clip21"><rect x="1.375" y="1.24988" width="468.25" height="208.25"/></clipPath><linearGradient x1="2565.5" y1="1241" x2="2565.5" y2="1408" gradientUnits="userSpaceOnUse" spreadMethod="reflect" id="fill22"><stop offset="0" stop-color="#F29063" stop-opacity="1"/><stop offset="0.5" stop-color="#F6803F" stop-opacity="1"/><stop offset="1" stop-color="#E46E2D" stop-opacity="1"/></linearGradient><clipPath id="clip23"><rect x="1.375" y="1.24988" width="643.25" height="244.25"/></clipPath><linearGradient x1="2018" y1="1296" x2="2018" y2="1499" gradientUnits="userSpaceOnUse" spreadMethod="reflect" id="fill24"><stop offset="0" stop-color="#DADFE3" stop-opacity="1"/><stop offset="0.5" stop-color="#D3D8DE" stop-opacity="1"/><stop offset="1" stop-color="#BABFC5" stop-opacity="1"/></linearGradient><clipPath id="clip25"><rect x="1.37512" y="1.24988" width="514.25" height="296.25"/></clipPath><linearGradient x1="1714.5" y1="579" x2="1714.5" y2="834" gradientUnits="userSpaceOnUse" spreadMethod="reflect" id="fill26"><stop offset="0" stop-color="#DADFE3" stop-opacity="1"/><stop offset="0.5" stop-color="#D3D8DE" stop-opacity="1"/><stop offset="1" stop-color="#BABFC5" stop-opacity="1"/></linearGradient><clipPath id="clip27"><rect x="1.375" y="1.24994" width="513.25" height="296.25"/></clipPath><linearGradient x1="2318" y1="582" x2="2318" y2="837" gradientUnits="userSpaceOnUse" spreadMethod="reflect" id="fill28"><stop offset="0" stop-color="#DADFE3" stop-opacity="1"/><stop offset="0.5" stop-color="#D3D8DE" stop-opacity="1"/><stop offset="1" stop-color="#BABFC5" stop-opacity="1"/></linearGradient></defs><g transform="translate(-1223 -563)"><g><path d="M1721.23 834.5 1721.23 1529.29 1709.77 1529.29 1709.77 834.5ZM1732.69 1523.56 1715.5 1557.94 1698.31 1523.56Z" fill="#804E44" fill-rule="nonzero" fill-opacity="1"/><path d="M2324.23 834.5 2324.23 1529.29 2312.77 1529.29 2312.77 834.5ZM2335.69 1523.56 2318.5 1557.94 2301.31 1523.56Z" fill="#804E44" fill-rule="nonzero" fill-opacity="1"/><path d="M1676.87 1028.35 2333.23 1313.03 2330.5 1319.33 1674.13 1034.65ZM2333.13 1301.74 2352.89 1325.3 2322.19 1326.97Z" fill="#EE8247" fill-rule="nonzero" fill-opacity="1"/><g clip-path="url(#clip15)" filter="url(#fx0)" transform="translate(1227 932)"><g><g><path d="M21.9999 49.7091C21.9999 34.3368 34.4616 21.8751 49.8339 21.8751L420.166 21.8751C435.538 21.8751 448 34.3368 448 49.7091L448 161.041C448 176.413 435.538 188.875 420.166 188.875L49.8339 188.875C34.4616 188.875 21.9999 176.413 21.9999 161.041Z" fill="#FF0000" fill-rule="evenodd" fill-opacity="1"/></g></g></g><g filter="url(#fx1)" transform="translate(1249 958)"><g><g><path d="M23.4062-48.9062C29.3646-48.9062 34.0937-46.5208 37.5937-41.75 40.7604-37.4167 42.3437-31.7604 42.3437-24.7812 42.3437-16.7812 40.3125-10.5521 36.25-6.09375 32.8333-2.36458 28.5521-0.5 23.4062-0.5 17.4479-0.5 12.7187-2.89583 9.21875-7.6875 6.05208-12.0208 4.46875-17.6667 4.46875-24.625 4.46875-32.625 6.52083-38.8646 10.625-43.3437 14.0417-47.0521 18.3021-48.9062 23.4062-48.9062ZM23.4062-45.25C18.7604-45.25 15.125-43.25 12.5-39.25 10.125-35.625 8.9375-30.7812 8.9375-24.7187 8.9375-17.8021 10.4687-12.4896 13.5312-8.78125 16.0937-5.69792 19.3854-4.15625 23.4062-4.15625 28.0729-4.15625 31.7187-6.16667 34.3437-10.1875 36.6979-13.8125 37.875-18.6562 37.875-24.7187 37.875-31.6562 36.3542-36.9583 33.3125-40.625 30.7708-43.7083 27.4687-45.25 23.4062-45.25ZM57.3542-48.9062 57.3542-1.40625 53.3854-1.40625 53.3854-48.9062ZM94.3125-48.9062 94.3125-1.40625 90.4687-1.40625 90.4687-6.34375C88.0937-2.53125 84.875-0.625 80.8125-0.625 76.7917-0.625 73.5833-2.32292 71.1875-5.71875 69.0208-8.78125 67.9375-12.7187 67.9375-17.5312 67.9375-23.0104 69.3021-27.2812 72.0312-30.3437 74.3021-32.9062 77.1667-34.1875 80.625-34.1875 84.625-34.1875 87.8646-32.3229 90.3437-28.5937L90.3437-48.9062ZM90.3437-24.3125C88.0937-28.5833 85.0625-30.7187 81.25-30.7187 78.2917-30.7187 75.9792-29.4271 74.3125-26.8437 72.7917-24.5104 72.0312-21.3854 72.0312-17.4687 72.0312-12.9479 73.0625-9.47917 75.125-7.0625 76.8125-5.04167 78.9583-4.03125 81.5625-4.03125 85.0625-4.03125 87.9896-6.10417 90.3437-10.25ZM170.729-48.0625 170.729-1.40625 166.698-1.40625 166.698-30.7812 166.76-44.5937 166.042-44.5937C165.417-42.4687 163.948-37.9479 161.635-31.0312L151.135-1.40625 145.698-1.40625 135.354-31.0312C133.833-35.3646 132.333-39.8854 130.854-44.5937L130.167-44.5937C130.146-43.6979 130.135-42.7604 130.135-41.7812L130.229-30.7187 130.229-1.40625 126.385-1.40625 126.385-48.0625 133.479-48.0625 143.604-18.8125C145.271-14.0625 146.802-9.5 148.198-5.125L148.854-5.125C151.25-12.2708 152.781-16.7708 153.448-18.625L163.698-48.0625ZM196.146-34.1875C200.417-34.1875 203.812-32.5 206.333-29.125 208.583-26.1042 209.708-22.2396 209.708-17.5312 209.708-12.0729 208.26-7.78125 205.365-4.65625 202.906-1.96875 199.812-0.625 196.083-0.625 191.75-0.625 188.333-2.33333 185.833-5.75 183.625-8.75 182.521-12.6146 182.521-17.3437 182.521-22.8021 183.958-27.0833 186.833-30.1875 189.292-32.8542 192.396-34.1875 196.146-34.1875ZM196.146-30.9375C192.979-30.9375 190.552-29.6042 188.865-26.9375 187.365-24.5833 186.615-21.4271 186.615-17.4687 186.615-12.8854 187.573-9.38542 189.49-6.96875 191.156-4.90625 193.354-3.875 196.083-3.875 199.229-3.875 201.656-5.21875 203.365-7.90625 204.865-10.2812 205.615-13.4687 205.615-17.4687 205.615-21.9896 204.656-25.4479 202.74-27.8437 201.073-29.9062 198.875-30.9375 196.146-30.9375ZM244.99-48.9062 244.99-1.40625 241.146-1.40625 241.146-6.34375C238.771-2.53125 235.552-0.625 231.49-0.625 227.469-0.625 224.26-2.32292 221.865-5.71875 219.698-8.78125 218.615-12.7187 218.615-17.5312 218.615-23.0104 219.979-27.2812 222.708-30.3437 224.979-32.9062 227.844-34.1875 231.302-34.1875 235.302-34.1875 238.542-32.3229 241.021-28.5937L241.021-48.9062ZM241.021-24.3125C238.771-28.5833 235.74-30.7187 231.927-30.7187 228.969-30.7187 226.656-29.4271 224.99-26.8437 223.469-24.5104 222.708-21.3854 222.708-17.4687 222.708-12.9479 223.74-9.47917 225.802-7.0625 227.49-5.04167 229.635-4.03125 232.24-4.03125 235.74-4.03125 238.667-6.10417 241.021-10.25ZM282.979-17.0937 259.76-17.0937C259.76-12.6146 260.844-9.16667 263.01-6.75 264.823-4.75 267.135-3.75 269.948-3.75 274.552-3.75 277.573-6.04167 279.01-10.625L282.729-9.21875C280.521-3.48958 276.24-0.625 269.885-0.625 265.406-0.625 261.875-2.32292 259.292-5.71875 257-8.71875 255.854-12.5937 255.854-17.3437 255.854-22.7604 257.323-27.0417 260.26-30.1875 262.74-32.8542 265.833-34.1875 269.542-34.1875 273.771-34.1875 277.135-32.5521 279.635-29.2812 281.865-26.3646 282.979-22.6458 282.979-18.125ZM279.01-20.0937C278.719-23.8021 277.635-26.6146 275.76-28.5312 274.156-30.1771 272.104-31 269.604-31 266.729-31 264.396-29.8854 262.604-27.6562 261.021-25.7187 260.115-23.1979 259.885-20.0937ZM297.979-48.9062 297.979-1.40625 294.01-1.40625 294.01-48.9062Z" fill="#FFFFFF" fill-rule="nonzero" fill-opacity="1" transform="matrix(1 0 0 1 60.7542 100)"/></g></g></g><path d="M1249 974.834C1249 959.462 1261.46 947 1276.83 947L1647.17 947C1662.54 947 1675 959.462 1675 974.834L1675 1086.17C1675 1101.54 1662.54 1114 1647.17 1114L1276.83 1114C1261.46 1114 1249 1101.54 1249 1086.17Z" fill="url(#fill16)" fill-rule="evenodd"/><text fill="#FFFFFF" fill-opacity="1" font-family="Yu Gothic,Yu Gothic_MSFontService,sans-serif" font-style="normal" font-variant="normal" font-weight="400" font-stretch="normal" font-size="64" text-anchor="start" direction="ltr" writing-mode="lr-tb" unicode-bidi="normal" text-decoration="none" transform="matrix(1 0 0 1 1309.75 1051)">Old Model</text><g clip-path="url(#clip17)" filter="url(#fx2)" transform="translate(1227 1226)"><g><g><path d="M21.9999 49.7089C21.9999 34.3366 34.4616 21.8749 49.8339 21.8749L420.166 21.8749C435.538 21.8749 448 34.3366 448 49.7089L448 161.041C448 176.413 435.538 188.875 420.166 188.875L49.8339 188.875C34.4616 188.875 21.9999 176.413 21.9999 161.041Z" fill="#FF0000" fill-rule="evenodd" fill-opacity="1"/></g></g></g><g filter="url(#fx3)" transform="translate(1233 1252)"><g><g><path d="M40.625-48.0625 40.625-1.40625 35.1875-1.40625 18.3437-31.625C16.6146-34.8333 14.3958-39.0937 11.6875-44.4062L11.0625-44.4062C11.1458-37.7604 11.1875-33.0937 11.1875-30.4062L11.1875-1.40625 7.21875-1.40625 7.21875-48.0625 13.75-48.0625 29.8125-19.25C31.7292-15.6875 33.9479-11.3229 36.4687-6.15625L37.0937-6.15625C36.8021-11.6771 36.6562-16.5208 36.6562-20.6875L36.6562-48.0625ZM79.5937-17.0937 56.375-17.0937C56.375-12.6146 57.4583-9.16667 59.625-6.75 61.4375-4.75 63.75-3.75 66.5625-3.75 71.1667-3.75 74.1875-6.04167 75.625-10.625L79.3437-9.21875C77.1354-3.48958 72.8542-0.625 66.5-0.625 62.0208-0.625 58.4896-2.32292 55.9062-5.71875 53.6146-8.71875 52.4687-12.5937 52.4687-17.3437 52.4687-22.7604 53.9375-27.0417 56.875-30.1875 59.3542-32.8542 62.4479-34.1875 66.1562-34.1875 70.3854-34.1875 73.75-32.5521 76.25-29.2812 78.4792-26.3646 79.5937-22.6458 79.5937-18.125ZM75.625-20.0937C75.3333-23.8021 74.25-26.6146 72.375-28.5312 70.7708-30.1771 68.7187-31 66.2187-31 63.3437-31 61.0104-29.8854 59.2187-27.6562 57.6354-25.7187 56.7292-23.1979 56.5-20.0937ZM131.406-33.4062 121.719-1.40625 116.812-1.40625 111.437-21.1875C110.75-23.7083 110.042-26.7187 109.312-30.2187L108.594-30.2187C107.698-25.9271 107.021-22.9167 106.562-21.1875L101.187-1.40625 96.25-1.40625 86.7187-33.4062 91-33.4062 96.25-13.5C97.0625-10.3333 97.7917-7.34375 98.4375-4.53125L99.125-4.53125C100.458-10.3021 101.146-13.2708 101.187-13.4375L106.5-33.4062 111.625-33.4062 116.937-13.6875C117.396-11.9792 118.073-8.92708 118.969-4.53125L119.687-4.53125C120.417-7.92708 121.156-10.9583 121.906-13.625L127.344-33.4062ZM203.958-48.0625 203.958-1.40625 199.927-1.40625 199.927-30.7812 199.99-44.5937 199.271-44.5937C198.646-42.4687 197.177-37.9479 194.865-31.0312L184.365-1.40625 178.927-1.40625 168.583-31.0312C167.062-35.3646 165.562-39.8854 164.083-44.5937L163.396-44.5937C163.375-43.6979 163.365-42.7604 163.365-41.7812L163.458-30.7187 163.458-1.40625 159.615-1.40625 159.615-48.0625 166.708-48.0625 176.833-18.8125C178.5-14.0625 180.031-9.5 181.427-5.125L182.083-5.125C184.479-12.2708 186.01-16.7708 186.677-18.625L196.927-48.0625ZM229.375-34.1875C233.646-34.1875 237.042-32.5 239.562-29.125 241.812-26.1042 242.937-22.2396 242.937-17.5312 242.937-12.0729 241.49-7.78125 238.594-4.65625 236.135-1.96875 233.042-0.625 229.312-0.625 224.979-0.625 221.562-2.33333 219.062-5.75 216.854-8.75 215.75-12.6146 215.75-17.3437 215.75-22.8021 217.187-27.0833 220.062-30.1875 222.521-32.8542 225.625-34.1875 229.375-34.1875ZM229.375-30.9375C226.208-30.9375 223.781-29.6042 222.094-26.9375 220.594-24.5833 219.844-21.4271 219.844-17.4687 219.844-12.8854 220.802-9.38542 222.719-6.96875 224.385-4.90625 226.583-3.875 229.312-3.875 232.458-3.875 234.885-5.21875 236.594-7.90625 238.094-10.2812 238.844-13.4687 238.844-17.4687 238.844-21.9896 237.885-25.4479 235.969-27.8437 234.302-29.9062 232.104-30.9375 229.375-30.9375ZM278.219-48.9062 278.219-1.40625 274.375-1.40625 274.375-6.34375C272-2.53125 268.781-0.625 264.719-0.625 260.698-0.625 257.49-2.32292 255.094-5.71875 252.927-8.78125 251.844-12.7187 251.844-17.5312 251.844-23.0104 253.208-27.2812 255.937-30.3437 258.208-32.9062 261.073-34.1875 264.531-34.1875 268.531-34.1875 271.771-32.3229 274.25-28.5937L274.25-48.9062ZM274.25-24.3125C272-28.5833 268.969-30.7187 265.156-30.7187 262.198-30.7187 259.885-29.4271 258.219-26.8437 256.698-24.5104 255.937-21.3854 255.937-17.4687 255.937-12.9479 256.969-9.47917 259.031-7.0625 260.719-5.04167 262.865-4.03125 265.469-4.03125 268.969-4.03125 271.896-6.10417 274.25-10.25ZM316.208-17.0937 292.99-17.0937C292.99-12.6146 294.073-9.16667 296.24-6.75 298.052-4.75 300.365-3.75 303.177-3.75 307.781-3.75 310.802-6.04167 312.24-10.625L315.958-9.21875C313.75-3.48958 309.469-0.625 303.115-0.625 298.635-0.625 295.104-2.32292 292.521-5.71875 290.229-8.71875 289.083-12.5937 289.083-17.3437 289.083-22.7604 290.552-27.0417 293.49-30.1875 295.969-32.8542 299.062-34.1875 302.771-34.1875 307-34.1875 310.365-32.5521 312.865-29.2812 315.094-26.3646 316.208-22.6458 316.208-18.125ZM312.24-20.0937C311.948-23.8021 310.865-26.6146 308.99-28.5312 307.385-30.1771 305.333-31 302.833-31 299.958-31 297.625-29.8854 295.833-27.6562 294.25-25.7187 293.344-23.1979 293.115-20.0937ZM331.208-48.9062 331.208-1.40625 327.24-1.40625 327.24-48.9062Z" fill="#FFFFFF" fill-rule="nonzero" fill-opacity="1" transform="matrix(1 0 0 1 60.1396 100)"/></g></g></g><path d="M1249 1268.83C1249 1253.46 1261.46 1241 1276.83 1241L1647.17 1241C1662.54 1241 1675 1253.46 1675 1268.83L1675 1380.17C1675 1395.54 1662.54 1408 1647.17 1408L1276.83 1408C1261.46 1408 1249 1395.54 1249 1380.17Z" fill="url(#fill18)" fill-rule="evenodd"/><text fill="#FFFFFF" fill-opacity="1" font-family="Yu Gothic,Yu Gothic_MSFontService,sans-serif" font-style="normal" font-variant="normal" font-weight="400" font-stretch="normal" font-size="64" text-anchor="start" direction="ltr" writing-mode="lr-tb" unicode-bidi="normal" text-decoration="none" transform="matrix(1 0 0 1 1293.14 1345)">New Model</text><g clip-path="url(#clip19)" filter="url(#fx4)" transform="translate(2330 934)"><g><g><path d="M22 49.7091C22 34.3368 34.4617 21.8751 49.8339 21.8751L421.166 21.8751C436.538 21.8751 449 34.3368 449 49.7091L449 161.041C449 176.413 436.538 188.875 421.166 188.875L49.8339 188.875C34.4617 188.875 22 176.413 22 161.041Z" fill="#FF0000" fill-rule="evenodd" fill-opacity="1"/></g></g></g><g filter="url(#fx5)" transform="translate(2336 960)"><g><g><path d="M40.625-48.0625 40.625-1.40625 35.1875-1.40625 18.3437-31.625C16.6146-34.8333 14.3958-39.0937 11.6875-44.4062L11.0625-44.4062C11.1458-37.7604 11.1875-33.0937 11.1875-30.4062L11.1875-1.40625 7.21875-1.40625 7.21875-48.0625 13.75-48.0625 29.8125-19.25C31.7292-15.6875 33.9479-11.3229 36.4687-6.15625L37.0937-6.15625C36.8021-11.6771 36.6562-16.5208 36.6562-20.6875L36.6562-48.0625ZM79.5937-17.0937 56.375-17.0937C56.375-12.6146 57.4583-9.16667 59.625-6.75 61.4375-4.75 63.75-3.75 66.5625-3.75 71.1667-3.75 74.1875-6.04167 75.625-10.625L79.3437-9.21875C77.1354-3.48958 72.8542-0.625 66.5-0.625 62.0208-0.625 58.4896-2.32292 55.9062-5.71875 53.6146-8.71875 52.4687-12.5937 52.4687-17.3437 52.4687-22.7604 53.9375-27.0417 56.875-30.1875 59.3542-32.8542 62.4479-34.1875 66.1562-34.1875 70.3854-34.1875 73.75-32.5521 76.25-29.2812 78.4792-26.3646 79.5937-22.6458 79.5937-18.125ZM75.625-20.0937C75.3333-23.8021 74.25-26.6146 72.375-28.5312 70.7708-30.1771 68.7187-31 66.2187-31 63.3437-31 61.0104-29.8854 59.2187-27.6562 57.6354-25.7187 56.7292-23.1979 56.5-20.0937ZM131.406-33.4062 121.719-1.40625 116.812-1.40625 111.437-21.1875C110.75-23.7083 110.042-26.7187 109.312-30.2187L108.594-30.2187C107.698-25.9271 107.021-22.9167 106.562-21.1875L101.187-1.40625 96.25-1.40625 86.7187-33.4062 91-33.4062 96.25-13.5C97.0625-10.3333 97.7917-7.34375 98.4375-4.53125L99.125-4.53125C100.458-10.3021 101.146-13.2708 101.187-13.4375L106.5-33.4062 111.625-33.4062 116.937-13.6875C117.396-11.9792 118.073-8.92708 118.969-4.53125L119.687-4.53125C120.417-7.92708 121.156-10.9583 121.906-13.625L127.344-33.4062ZM203.958-48.0625 203.958-1.40625 199.927-1.40625 199.927-30.7812 199.99-44.5937 199.271-44.5937C198.646-42.4687 197.177-37.9479 194.865-31.0312L184.365-1.40625 178.927-1.40625 168.583-31.0312C167.062-35.3646 165.562-39.8854 164.083-44.5937L163.396-44.5937C163.375-43.6979 163.365-42.7604 163.365-41.7812L163.458-30.7187 163.458-1.40625 159.615-1.40625 159.615-48.0625 166.708-48.0625 176.833-18.8125C178.5-14.0625 180.031-9.5 181.427-5.125L182.083-5.125C184.479-12.2708 186.01-16.7708 186.677-18.625L196.927-48.0625ZM229.375-34.1875C233.646-34.1875 237.042-32.5 239.562-29.125 241.812-26.1042 242.937-22.2396 242.937-17.5312 242.937-12.0729 241.49-7.78125 238.594-4.65625 236.135-1.96875 233.042-0.625 229.312-0.625 224.979-0.625 221.562-2.33333 219.062-5.75 216.854-8.75 215.75-12.6146 215.75-17.3437 215.75-22.8021 217.187-27.0833 220.062-30.1875 222.521-32.8542 225.625-34.1875 229.375-34.1875ZM229.375-30.9375C226.208-30.9375 223.781-29.6042 222.094-26.9375 220.594-24.5833 219.844-21.4271 219.844-17.4687 219.844-12.8854 220.802-9.38542 222.719-6.96875 224.385-4.90625 226.583-3.875 229.312-3.875 232.458-3.875 234.885-5.21875 236.594-7.90625 238.094-10.2812 238.844-13.4687 238.844-17.4687 238.844-21.9896 237.885-25.4479 235.969-27.8437 234.302-29.9062 232.104-30.9375 229.375-30.9375ZM278.219-48.9062 278.219-1.40625 274.375-1.40625 274.375-6.34375C272-2.53125 268.781-0.625 264.719-0.625 260.698-0.625 257.49-2.32292 255.094-5.71875 252.927-8.78125 251.844-12.7187 251.844-17.5312 251.844-23.0104 253.208-27.2812 255.937-30.3437 258.208-32.9062 261.073-34.1875 264.531-34.1875 268.531-34.1875 271.771-32.3229 274.25-28.5937L274.25-48.9062ZM274.25-24.3125C272-28.5833 268.969-30.7187 265.156-30.7187 262.198-30.7187 259.885-29.4271 258.219-26.8437 256.698-24.5104 255.937-21.3854 255.937-17.4687 255.937-12.9479 256.969-9.47917 259.031-7.0625 260.719-5.04167 262.865-4.03125 265.469-4.03125 268.969-4.03125 271.896-6.10417 274.25-10.25ZM316.208-17.0937 292.99-17.0937C292.99-12.6146 294.073-9.16667 296.24-6.75 298.052-4.75 300.365-3.75 303.177-3.75 307.781-3.75 310.802-6.04167 312.24-10.625L315.958-9.21875C313.75-3.48958 309.469-0.625 303.115-0.625 298.635-0.625 295.104-2.32292 292.521-5.71875 290.229-8.71875 289.083-12.5937 289.083-17.3437 289.083-22.7604 290.552-27.0417 293.49-30.1875 295.969-32.8542 299.062-34.1875 302.771-34.1875 307-34.1875 310.365-32.5521 312.865-29.2812 315.094-26.3646 316.208-22.6458 316.208-18.125ZM312.24-20.0937C311.948-23.8021 310.865-26.6146 308.99-28.5312 307.385-30.1771 305.333-31 302.833-31 299.958-31 297.625-29.8854 295.833-27.6562 294.25-25.7187 293.344-23.1979 293.115-20.0937ZM331.208-48.9062 331.208-1.40625 327.24-1.40625 327.24-48.9062Z" fill="#FFFFFF" fill-rule="nonzero" fill-opacity="1" transform="matrix(1 0 0 1 60.7202 100)"/></g></g></g><path d="M2352 976.834C2352 961.462 2364.46 949 2379.83 949L2751.17 949C2766.54 949 2779 961.462 2779 976.834L2779 1088.17C2779 1103.54 2766.54 1116 2751.17 1116L2379.83 1116C2364.46 1116 2352 1103.54 2352 1088.17Z" fill="url(#fill20)" fill-rule="evenodd"/><text fill="#FFFFFF" fill-opacity="1" font-family="Yu Gothic,Yu Gothic_MSFontService,sans-serif" font-style="normal" font-variant="normal" font-weight="400" font-stretch="normal" font-size="64" text-anchor="start" direction="ltr" writing-mode="lr-tb" unicode-bidi="normal" text-decoration="none" transform="matrix(1 0 0 1 2396.72 1053)">New Model</text><g clip-path="url(#clip21)" filter="url(#fx6)" transform="translate(2330 1226)"><g><g><path d="M22 49.7088C22 34.3366 34.4617 21.8749 49.8339 21.8749L421.166 21.8749C436.538 21.8749 449 34.3366 449 49.7088L449 161.041C449 176.413 436.538 188.875 421.166 188.875L49.8339 188.875C34.4617 188.875 22 176.413 22 161.041Z" fill="#FF0000" fill-rule="evenodd" fill-opacity="1"/></g></g></g><g filter="url(#fx7)" transform="translate(2353 1252)"><g><g><path d="M23.4062-48.9062C29.3646-48.9062 34.0937-46.5208 37.5937-41.75 40.7604-37.4167 42.3437-31.7604 42.3437-24.7812 42.3437-16.7812 40.3125-10.5521 36.25-6.09375 32.8333-2.36458 28.5521-0.5 23.4062-0.5 17.4479-0.5 12.7187-2.89583 9.21875-7.6875 6.05208-12.0208 4.46875-17.6667 4.46875-24.625 4.46875-32.625 6.52083-38.8646 10.625-43.3437 14.0417-47.0521 18.3021-48.9062 23.4062-48.9062ZM23.4062-45.25C18.7604-45.25 15.125-43.25 12.5-39.25 10.125-35.625 8.9375-30.7812 8.9375-24.7187 8.9375-17.8021 10.4687-12.4896 13.5312-8.78125 16.0937-5.69792 19.3854-4.15625 23.4062-4.15625 28.0729-4.15625 31.7187-6.16667 34.3437-10.1875 36.6979-13.8125 37.875-18.6562 37.875-24.7187 37.875-31.6562 36.3542-36.9583 33.3125-40.625 30.7708-43.7083 27.4687-45.25 23.4062-45.25ZM57.3542-48.9062 57.3542-1.40625 53.3854-1.40625 53.3854-48.9062ZM94.3125-48.9062 94.3125-1.40625 90.4687-1.40625 90.4687-6.34375C88.0937-2.53125 84.875-0.625 80.8125-0.625 76.7917-0.625 73.5833-2.32292 71.1875-5.71875 69.0208-8.78125 67.9375-12.7187 67.9375-17.5312 67.9375-23.0104 69.3021-27.2812 72.0312-30.3437 74.3021-32.9062 77.1667-34.1875 80.625-34.1875 84.625-34.1875 87.8646-32.3229 90.3437-28.5937L90.3437-48.9062ZM90.3437-24.3125C88.0937-28.5833 85.0625-30.7187 81.25-30.7187 78.2917-30.7187 75.9792-29.4271 74.3125-26.8437 72.7917-24.5104 72.0312-21.3854 72.0312-17.4687 72.0312-12.9479 73.0625-9.47917 75.125-7.0625 76.8125-5.04167 78.9583-4.03125 81.5625-4.03125 85.0625-4.03125 87.9896-6.10417 90.3437-10.25ZM170.729-48.0625 170.729-1.40625 166.698-1.40625 166.698-30.7812 166.76-44.5937 166.042-44.5937C165.417-42.4687 163.948-37.9479 161.635-31.0312L151.135-1.40625 145.698-1.40625 135.354-31.0312C133.833-35.3646 132.333-39.8854 130.854-44.5937L130.167-44.5937C130.146-43.6979 130.135-42.7604 130.135-41.7812L130.229-30.7187 130.229-1.40625 126.385-1.40625 126.385-48.0625 133.479-48.0625 143.604-18.8125C145.271-14.0625 146.802-9.5 148.198-5.125L148.854-5.125C151.25-12.2708 152.781-16.7708 153.448-18.625L163.698-48.0625ZM196.146-34.1875C200.417-34.1875 203.812-32.5 206.333-29.125 208.583-26.1042 209.708-22.2396 209.708-17.5312 209.708-12.0729 208.26-7.78125 205.365-4.65625 202.906-1.96875 199.812-0.625 196.083-0.625 191.75-0.625 188.333-2.33333 185.833-5.75 183.625-8.75 182.521-12.6146 182.521-17.3437 182.521-22.8021 183.958-27.0833 186.833-30.1875 189.292-32.8542 192.396-34.1875 196.146-34.1875ZM196.146-30.9375C192.979-30.9375 190.552-29.6042 188.865-26.9375 187.365-24.5833 186.615-21.4271 186.615-17.4687 186.615-12.8854 187.573-9.38542 189.49-6.96875 191.156-4.90625 193.354-3.875 196.083-3.875 199.229-3.875 201.656-5.21875 203.365-7.90625 204.865-10.2812 205.615-13.4687 205.615-17.4687 205.615-21.9896 204.656-25.4479 202.74-27.8437 201.073-29.9062 198.875-30.9375 196.146-30.9375ZM244.99-48.9062 244.99-1.40625 241.146-1.40625 241.146-6.34375C238.771-2.53125 235.552-0.625 231.49-0.625 227.469-0.625 224.26-2.32292 221.865-5.71875 219.698-8.78125 218.615-12.7187 218.615-17.5312 218.615-23.0104 219.979-27.2812 222.708-30.3437 224.979-32.9062 227.844-34.1875 231.302-34.1875 235.302-34.1875 238.542-32.3229 241.021-28.5937L241.021-48.9062ZM241.021-24.3125C238.771-28.5833 235.74-30.7187 231.927-30.7187 228.969-30.7187 226.656-29.4271 224.99-26.8437 223.469-24.5104 222.708-21.3854 222.708-17.4687 222.708-12.9479 223.74-9.47917 225.802-7.0625 227.49-5.04167 229.635-4.03125 232.24-4.03125 235.74-4.03125 238.667-6.10417 241.021-10.25ZM282.979-17.0937 259.76-17.0937C259.76-12.6146 260.844-9.16667 263.01-6.75 264.823-4.75 267.135-3.75 269.948-3.75 274.552-3.75 277.573-6.04167 279.01-10.625L282.729-9.21875C280.521-3.48958 276.24-0.625 269.885-0.625 265.406-0.625 261.875-2.32292 259.292-5.71875 257-8.71875 255.854-12.5937 255.854-17.3437 255.854-22.7604 257.323-27.0417 260.26-30.1875 262.74-32.8542 265.833-34.1875 269.542-34.1875 273.771-34.1875 277.135-32.5521 279.635-29.2812 281.865-26.3646 282.979-22.6458 282.979-18.125ZM279.01-20.0937C278.719-23.8021 277.635-26.6146 275.76-28.5312 274.156-30.1771 272.104-31 269.604-31 266.729-31 264.396-29.8854 262.604-27.6562 261.021-25.7187 260.115-23.1979 259.885-20.0937ZM297.979-48.9062 297.979-1.40625 294.01-1.40625 294.01-48.9062Z" fill="#FFFFFF" fill-rule="nonzero" fill-opacity="1" transform="matrix(1 0 0 1 60.3345 100)"/></g></g></g><path d="M2352 1268.83C2352 1253.46 2364.46 1241 2379.83 1241L2751.17 1241C2766.54 1241 2779 1253.46 2779 1268.83L2779 1380.17C2779 1395.54 2766.54 1408 2751.17 1408L2379.83 1408C2364.46 1408 2352 1395.54 2352 1380.17Z" fill="url(#fill22)" fill-rule="evenodd"/><text fill="#FFFFFF" fill-opacity="1" font-family="Yu Gothic,Yu Gothic_MSFontService,sans-serif" font-style="normal" font-variant="normal" font-weight="400" font-stretch="normal" font-size="64" text-anchor="start" direction="ltr" writing-mode="lr-tb" unicode-bidi="normal" text-decoration="none" transform="matrix(1 0 0 1 2413.33 1345)">Old Model</text><path d="M1.35956-3.15721 657.7 279.476 654.981 285.791-1.35956 3.15721ZM657.571 268.192 677.39 291.698 646.694 293.45Z" fill="#3C70A5" fill-rule="nonzero" fill-opacity="1" transform="matrix(-1 0 0 1 2352.89 1033.5)"/><path d="M1835 1128.67C1835 1115.04 1846.04 1104 1859.67 1104L2167.33 1104C2180.96 1104 2192 1115.04 2192 1128.67L2192 1227.33C2192 1240.96 2180.96 1252 2167.33 1252L1859.67 1252C1846.04 1252 1835 1240.96 1835 1227.33Z" fill="#FFFFFF" fill-rule="evenodd" fill-opacity="0.8"/><g filter="url(#fx8)" transform="translate(1822 1098)"><g><g><path d="M49.646-49.2812 38.7847-46.3228C37.1095-53.3475 33.2865-56.8599 27.3154-56.8599 23.695-56.8599 20.9256-56.0088 19.0073-54.3066 17.3862-52.8476 16.5757-50.9023 16.5757-48.4707 16.5757-45.4447 17.5078-43.1481 19.3721-41.5811 21.0742-40.1761 24.0867-38.8792 28.4097-37.6904L31.814-36.6772C39.352-34.6239 44.5125-31.9355 47.2954-28.6123 49.5379-25.9105 50.6592-22.263 50.6592-17.6699 50.6592-11.4287 48.4437-6.61946 44.0127-3.24219 39.96-0.135091 34.4212 1.41846 27.3965 1.41846 20.6149 1.41846 15.1167-0.1486 10.9019-3.28271 7.09228-6.11963 4.48503-10.1183 3.08008-15.2788L13.7793-18.6831C14.6709-14.7114 16.4136-11.7124 19.0073-9.68603 21.2498-7.92985 23.9652-7.05176 27.1533-7.05176 35.3669-7.05176 39.4736-10.1183 39.4736-16.2515 39.4736-19.3315 38.5685-21.6281 36.7583-23.1411 35.0021-24.6271 31.7194-26.0456 26.9102-27.3965L23.5869-28.3691C16.4271-30.5036 11.5098-33.2189 8.83496-36.5151 6.59245-39.271 5.47119-43.013 5.47119-47.7412 5.47119-53.1719 7.57861-57.5218 11.7935-60.791 15.6571-63.8171 20.723-65.3301 26.9912-65.3301 38.6901-65.3301 46.2417-59.9805 49.646-49.2812ZM122.067-45.3906 109.544 0.162109 97.4266 0.162109 92.847-20.2637C92.6309-21.2904 91.5501-26.7886 89.6048-36.7583L88.6322-36.7583C87.3893-30.0578 86.2816-24.5325 85.3089-20.1826L80.4862 0.162109 68.3685 0.162109 56.1698-45.3906 66.869-45.3906 71.2054-25.4106C71.6377-23.3302 72.2591-20.2637 73.0697-16.2109 73.7721-12.6986 74.2855-10.1724 74.6097-8.63232L75.5013-8.63232C75.8525-10.1183 76.4604-13.0498 77.325-17.4268 78.0005-20.777 78.5544-23.3708 78.9866-25.208L83.4852-45.3906 95.765-45.3906 100.061-25.208C101.493-18.7236 102.574-13.1984 103.303-8.63232L104.316-8.63232C104.559-9.76709 105.14-12.6851 106.059-17.3862 106.68-20.5474 107.234-23.1951 107.721-25.3296L112.097-45.3906ZM140.28-45.3906 140.28 0.162109 129.824 0.162109 129.824-45.3906ZM140.725-64.2358 140.725-53.5366 129.418-53.5366 129.418-64.2358ZM165.836-60.2642 165.836-45.3906 176.049-45.3906 176.049-37.7715 165.836-37.7715 165.836-12.7661C165.836-8.38916 167.714-6.20068 171.469-6.20068 173.496-6.20068 175.265-6.3763 176.778-6.72754L176.373 0.729492C174.077 1.08073 171.361 1.25635 168.227 1.25635 163.607 1.25635 160.284 0.1486 158.257-2.06689 156.447-4.03922 155.542-6.9707 155.542-10.8613L155.542-37.7715 148.734-37.7715 148.734-45.3906 155.542-45.3906 155.542-57.9136ZM221.258-31.8545 211.126-29.5444C210.153-35.7046 207.465-38.7847 203.061-38.7847 196.252-38.7847 192.848-33.381 192.848-22.5737 192.848-11.7124 196.252-6.28174 203.061-6.28174 207.87-6.28174 210.775-9.46989 211.774-15.8462L221.501-13.1714C220.312-8.146 217.921-4.39046 214.327-1.90479 211.22 0.256673 207.384 1.3374 202.818 1.3374 195.901 1.3374 190.605-1.0402 186.931-5.79541 183.743-9.95622 182.149-15.495 182.149-22.4116 182.149-30.328 184.256-36.4476 188.471-40.7705 192.118-44.526 196.901-46.4038 202.818-46.4038 208.059-46.4038 212.315-44.9718 215.584-42.1079 218.421-39.6222 220.312-36.2044 221.258-31.8545ZM240.621-65.4111 240.621-37.6904C244.701-43.4453 249.578-46.3228 255.251-46.3228 259.385-46.3228 262.641-44.9853 265.019-42.3105 267.18-39.8789 268.261-36.6772 268.261-32.7056L268.261 0.162109 257.562 0.162109 257.562-29.7065C257.562-34.813 255.454-37.3662 251.239-37.3662 249.294-37.3662 247.295-36.5557 245.241-34.9346 243.485-33.5566 241.945-31.7599 240.621-29.5444L240.621 0.162109 230.165 0.162109 230.165-65.4111Z" fill="#202324" fill-rule="nonzero" fill-opacity="1" transform="matrix(1 0 0 1 56.3611 108)"/></g></g></g><text fill="#202324" fill-opacity="1" font-family="Yu Gothic,Yu Gothic_MSFontService,sans-serif" font-style="normal" font-variant="normal" font-weight="700" font-stretch="normal" font-size="83" text-anchor="start" direction="ltr" writing-mode="lr-tb" unicode-bidi="normal" text-decoration="none" transform="matrix(1 0 0 1 1876.44 1204)">Switch</text><g clip-path="url(#clip23)" filter="url(#fx9)" transform="translate(1695 1281)"><g><g><path d="M22 72.6249 522.5 72.6249 522.5 21.8749 624 123.375 522.5 224.875 522.5 174.125 22 174.125Z" fill="#FF0000" fill-rule="evenodd" fill-opacity="1"/></g></g></g><g filter="url(#fx10)" transform="translate(1708 1333)"><g><g><path d="M37.4902-30.3467 30.293-28.6011C29.2367-34.6167 26.2467-37.6245 21.3232-37.6245 17.832-37.6245 15.1375-36.0669 13.2397-32.9517 11.4852-30.0871 10.6079-26.1841 10.6079-21.2427 10.6079-15.6209 11.7448-11.3509 14.0186-8.43262 15.8984-6.03353 18.3333-4.83398 21.3232-4.83398 26.4079-4.83398 29.541-7.8776 30.7227-13.9648L37.7319-11.8164C35.5477-3.34798 30.0602 0.88623 21.2695 0.88623 15.2539 0.88623 10.5721-1.28906 7.22412-5.63965 4.23421-9.52474 2.73926-14.6989 2.73926-21.1621 2.73926-28.5921 4.67285-34.3034 8.54004-38.2959 11.8164-41.6618 16.0596-43.3447 21.2695-43.3447 25.8887-43.3447 29.6484-42.0378 32.5488-39.4238 35.0195-37.1859 36.6667-34.1602 37.4902-30.3467ZM55.8594-30.7495C60.2637-30.7495 63.7101-29.165 66.1987-25.9961 68.4009-23.1852 69.5019-19.5239 69.5019-15.0122 69.5019-9.80225 68.0876-5.74707 65.2588-2.84668 62.8239-0.358073 59.6728 0.88623 55.8057 0.88623 51.3656 0.88623 47.9102-0.698242 45.4394-3.86719 43.2552-6.66016 42.1631-10.3215 42.1631-14.8511 42.1631-20.0431 43.5864-24.0983 46.4331-27.0166 48.8859-29.5052 52.028-30.7495 55.8594-30.7495ZM55.8594-25.7544C51.4551-25.7544 49.2529-22.1558 49.2529-14.9585 49.2529-7.72542 51.4372-4.10889 55.8057-4.10889 60.21-4.10889 62.4121-7.72542 62.4121-14.9585 62.4121-22.1558 60.2279-25.7544 55.8594-25.7544ZM83.3057-30.0781 83.3057-25.6201C85.4004-29.0397 88.2202-30.7495 91.7651-30.7495 95.4354-30.7495 98.3089-29.2725 100.386-26.3184 102.301-23.5612 103.259-19.8462 103.259-15.1733 103.259-9.83805 101.952-5.70231 99.3384-2.76611 97.2078-0.367025 94.576 0.832519 91.4429 0.832519 87.9875 0.832519 85.3467-0.823568 83.5205-4.13574L83.5205 10.7153 76.6455 10.7153 76.6455-30.0781ZM83.5205-20.249 83.5205-9.56055C84.9707-6.19466 87.0028-4.51172 89.6167-4.51172 91.6935-4.51172 93.3138-5.46956 94.4775-7.38525 95.6055-9.21142 96.1694-11.7537 96.1694-15.0122 96.1694-18.7004 95.498-21.4396 94.1553-23.23 93.099-24.6444 91.7204-25.3516 90.0195-25.3516 87.1728-25.3516 85.0065-23.6507 83.5205-20.249ZM134.161-30.0781 123.526 1.2085C122.291 4.86084 120.608 7.41211 118.477 8.8623 116.669 10.1156 114.306 10.7422 111.388 10.7422 110.081 10.7422 108.827 10.6437 107.628 10.4468L107.359 5.1831C108.756 5.43376 110.045 5.55908 111.226 5.55908 114.001 5.55908 115.908 4.00146 116.947 0.88623L117.376-0.429687 107.144-30.0781 114.449-30.0781 118.048-17.4292C118.334-16.4087 119.176-13.1055 120.572-7.51953L121.109-7.51953C121.342-8.3431 121.816-10.1066 122.533-12.8101 123.034-14.6899 123.464-16.2655 123.822-17.5366L127.286-30.0781ZM155.78-42.5659 170.846-42.5659C180.997-42.5659 186.073-38.4928 186.073-30.3467 186.073-26.1035 184.56-22.8898 181.534-20.7056 178.831-18.772 175.116-17.8052 170.389-17.8052L163.192-17.8052 163.192 0.107422 155.78 0.107422ZM163.192-37.0068 163.192-23.3643 170.174-23.3643C175.778-23.3643 178.58-25.6738 178.58-30.293 178.58-34.7689 175.868-37.0068 170.443-37.0068ZM192.634-22.478C194.192-28.0282 198.354-30.8032 205.122-30.8032 212.928-30.8032 216.831-27.4642 216.831-20.7861L216.831-8.80859C216.831-5.8903 216.992-2.91829 217.314 0.107422L210.95 0.107422C210.753-1.02051 210.583-2.33643 210.439-3.84033 208.273-0.725098 205.104 0.832519 200.933 0.832519 197.943 0.832519 195.597-0.0805665 193.896-1.90674 192.393-3.51807 191.641-5.59489 191.641-8.13721 191.641-13.5083 194.926-16.8294 201.497-18.1006 203.931-18.5661 206.805-18.8525 210.117-18.96L210.117-20.6787C210.117-22.6839 209.643-24.1073 208.694-24.9487 207.87-25.6649 206.599-26.0229 204.88-26.0229 203.305-26.0229 201.998-25.5127 200.959-24.4922 200.011-23.5612 199.393-22.3079 199.106-20.7324ZM210.117-14.6899C207.808-14.6362 205.498-14.3408 203.188-13.8037 199.894-13.0159 198.247-11.3062 198.247-8.67432 198.247-5.6307 199.858-4.10889 203.081-4.10889 206.017-4.10889 208.363-5.76497 210.117-9.07715ZM241.449-30.7495 240.992-24.2505C237.143-24.2505 234.287-21.6992 232.425-16.5967L232.425 0.107422 225.604 0.107422 225.604-30.0781 232.103-30.0781 232.103-22.666C234.054-28.055 237.17-30.7495 241.449-30.7495ZM246.488-22.478C248.046-28.0282 252.209-30.8032 258.976-30.8032 266.782-30.8032 270.685-27.4642 270.685-20.7861L270.685-8.80859C270.685-5.8903 270.846-2.91829 271.169 0.107422L264.804 0.107422C264.607-1.02051 264.437-2.33643 264.294-3.84033 262.127-0.725098 258.958 0.832519 254.787 0.832519 251.797 0.832519 249.451-0.0805665 247.751-1.90674 246.247-3.51807 245.495-5.59489 245.495-8.13721 245.495-13.5083 248.78-16.8294 255.351-18.1006 257.786-18.5661 260.659-18.8525 263.971-18.96L263.971-20.6787C263.971-22.6839 263.497-24.1073 262.548-24.9487 261.724-25.6649 260.453-26.0229 258.735-26.0229 257.159-26.0229 255.852-25.5127 254.814-24.4922 253.865-23.5612 253.247-22.3079 252.961-20.7324ZM263.971-14.6899C261.662-14.6362 259.352-14.3408 257.043-13.8037 253.748-13.0159 252.101-11.3062 252.101-8.67432 252.101-5.6307 253.713-4.10889 256.935-4.10889 259.871-4.10889 262.217-5.76497 263.971-9.07715ZM286.064-30.0781 286.064-24.7876C288.643-28.7622 291.812-30.7495 295.571-30.7495 297.666-30.7495 299.394-30.1408 300.754-28.9233 301.882-27.8849 302.634-26.5242 303.01-24.8413 305.606-28.7801 308.793-30.7495 312.571-30.7495 315.238-30.7495 317.315-29.8543 318.801-28.064 320.144-26.4705 320.815-24.34 320.815-21.6724L320.815 0.107422 313.887 0.107422 313.887-19.7388C313.887-23.1226 312.49-24.8145 309.697-24.8145 308.444-24.8145 307.2-24.2773 305.964-23.2031 304.908-22.2721 304.049-21.0994 303.386-19.6851L303.386 0.107422 296.565 0.107422 296.565-19.7388C296.565-23.1226 295.321-24.8145 292.832-24.8145 291.561-24.8145 290.29-24.2863 289.019-23.23 287.909-22.299 286.995-21.1173 286.279-19.6851L286.279 0.107422 279.458 0.107422 279.458-30.0781ZM354.653-13.4814 334.243-13.4814C334.279-10.3304 335.013-7.91341 336.445-6.23047 337.752-4.70866 339.552-3.94775 341.843-3.94775 345.084-3.94775 347.205-5.86344 348.208-9.69482L354.492-7.86865C352.594-2.03206 348.351 0.88623 341.763 0.88623 336.947 0.88623 333.285-0.671387 330.779-3.78662 328.577-6.50797 327.476-10.1782 327.476-14.7974 327.476-20.0252 328.908-24.0894 331.772-26.9897 334.225-29.4963 337.358-30.7495 341.172-30.7495 345.433-30.7495 348.799-29.2008 351.27-26.1035 353.525-23.2926 354.653-19.5597 354.653-14.9048ZM347.886-18.0469C347.546-23.3284 345.343-25.9692 341.279-25.9692 339.077-25.9692 337.367-25.1636 336.15-23.5522 335.111-22.1737 334.512-20.3385 334.351-18.0469ZM369.63-39.9341 369.63-30.0781 376.397-30.0781 376.397-25.0293 369.63-25.0293 369.63-8.45947C369.63-5.55908 370.874-4.10889 373.363-4.10889 374.705-4.10889 375.878-4.22526 376.881-4.45801L376.612 0.483398C375.09 0.716146 373.291 0.832519 371.214 0.832519 368.153 0.832519 365.951 0.09847 364.608-1.36963 363.408-2.67659 362.808-4.61914 362.808-7.19727L362.808-25.0293 358.297-25.0293 358.297-30.0781 362.808-30.0781 362.808-38.3765ZM407.362-13.4814 386.952-13.4814C386.987-10.3304 387.721-7.91341 389.154-6.23047 390.461-4.70866 392.26-3.94775 394.552-3.94775 397.792-3.94775 399.914-5.86344 400.916-9.69482L407.201-7.86865C405.303-2.03206 401.06 0.88623 394.471 0.88623 389.655 0.88623 385.994-0.671387 383.487-3.78662 381.285-6.50797 380.184-10.1782 380.184-14.7974 380.184-20.0252 381.616-24.0894 384.481-26.9897 386.934-29.4963 390.067-30.7495 393.88-30.7495 398.141-30.7495 401.507-29.2008 403.978-26.1035 406.234-23.2926 407.362-19.5597 407.362-14.9048ZM400.594-18.0469C400.254-23.3284 398.052-25.9692 393.988-25.9692 391.785-25.9692 390.076-25.1636 388.858-23.5522 387.82-22.1737 387.22-20.3385 387.059-18.0469ZM429.938-30.7495 429.482-24.2505C425.632-24.2505 422.777-21.6992 420.915-16.5967L420.915 0.107422 414.093 0.107422 414.093-30.0781 420.592-30.0781 420.592-22.666C422.544-28.055 425.659-30.7495 429.938-30.7495ZM457.644-23.042 451.091-21.1621C450.339-24.4027 448.549-26.0229 445.72-26.0229 444.181-26.0229 442.972-25.6649 442.095-24.9487 441.361-24.3758 440.994-23.6507 440.994-22.7734 440.994-21.5023 441.396-20.5534 442.202-19.9268 442.954-19.3538 444.342-18.7988 446.365-18.2617L448.889-17.5903C452.542-16.6235 455.057-15.3792 456.436-13.8574 457.653-12.5146 458.262-10.6974 458.262-8.40576 458.262-5.39795 457.107-3.07047 454.797-1.42334 452.667 0.116374 449.749 0.88623 446.043 0.88623 439.472 0.88623 435.273-1.62923 433.447-6.66016L439.893-8.91601C440.859-5.53223 442.963-3.84033 446.204-3.84033 449.874-3.84033 451.709-5.13835 451.709-7.73437 451.709-9.02344 451.279-9.96338 450.42-10.5542 449.686-11.0376 448.173-11.6105 445.881-12.2729L443.357-12.9712C439.866-13.9022 437.476-15.1196 436.187-16.6235 435.059-17.9484 434.495-19.7925 434.495-22.1558 434.495-24.8592 435.596-26.9987 437.798-28.5742 439.821-30.0244 442.498-30.7495 445.828-30.7495 451.969-30.7495 455.907-28.1803 457.644-23.042Z" fill="#202324" fill-rule="nonzero" fill-opacity="1" transform="matrix(1 0 0 1 54.6537 89)"/></g></g></g><path d="M1717 1346.75 2217.5 1346.75 2217.5 1296 2319 1397.5 2217.5 1499 2217.5 1448.25 1717 1448.25Z" fill="url(#fill24)" fill-rule="evenodd"/><text fill="#202324" fill-opacity="1" font-family="Yu Gothic,Yu Gothic_MSFontService,sans-serif" font-style="normal" font-variant="normal" font-weight="700" font-stretch="normal" font-size="55" text-anchor="start" direction="ltr" writing-mode="lr-tb" unicode-bidi="normal" text-decoration="none" transform="matrix(1 0 0 1 1762.65 1416)">Copy Parameters</text><g clip-path="url(#clip25)" filter="url(#fx11)" transform="translate(1456 564)"><g><g><path d="M22.0001 64.3756C22.0001 40.9031 41.0283 21.8749 64.5008 21.8749L452.499 21.8749C475.972 21.8749 495 40.9031 495 64.3756L495 234.374C495 257.847 475.972 276.875 452.499 276.875L64.5008 276.875C41.0283 276.875 22.0001 257.847 22.0001 234.374Z" fill="#FF0000" fill-rule="evenodd" fill-opacity="1"/></g></g></g><g filter="url(#fx12)" transform="translate(1490 581)"><g><g><path d="M13.0459-54.8213 13.0459-1.604 8.23389-1.604 8.23389-54.8213ZM32.8893-38.104 32.8893-31.3315C36.9766-36.4406 41.4202-38.9951 46.2204-38.9951 49.5234-38.9951 52.1017-37.9614 53.9552-35.894 55.6186-34.0643 56.4504-31.6642 56.4504-28.6938L56.4504-1.604 51.8522-1.604 51.8522-26.8047C51.8522-32.1989 49.5947-34.896 45.0798-34.896 40.8499-34.896 36.834-32.3652 33.0319-27.3037L33.0319-1.604 28.505-1.604 28.505-38.104ZM87.2974-55.4629 86.6558-51.7559C85.6102-51.9697 84.4933-52.0767 83.3052-52.0767 81.1903-52.0767 79.6813-51.5301 78.7783-50.437 77.9941-49.4865 77.6021-48.0013 77.6021-45.9814L77.6021-38.104 86.228-38.104 86.228-34.4683 77.6021-34.4683 77.6021-1.604 73.0752-1.604 73.0752-34.4683 66.3027-34.4683 66.3027-38.104 73.0752-38.104 73.0752-46.124C73.0752-52.5638 76.307-55.7837 82.7705-55.7837 83.8636-55.7837 85.3726-55.6768 87.2974-55.4629ZM124.696-19.4976 98.2122-19.4976C98.2122-14.3885 99.4479-10.4557 101.919-7.69922 103.987-5.41797 106.624-4.27734 109.832-4.27734 115.084-4.27734 118.53-6.89128 120.169-12.1191L124.411-10.5151C121.892-3.98031 117.009-0.712891 109.761-0.712891 104.652-0.712891 100.624-2.64958 97.6776-6.52295 95.0636-9.94482 93.7567-14.3647 93.7567-19.7827 93.7567-25.9611 95.432-30.8444 98.7825-34.4326 101.61-37.4743 105.139-38.9951 109.369-38.9951 114.193-38.9951 118.031-37.1297 120.882-33.3989 123.425-30.0721 124.696-25.8304 124.696-20.6738ZM120.169-22.9194C119.837-27.1492 118.601-30.3573 116.462-32.5435 114.632-34.4207 112.292-35.3594 109.44-35.3594 106.161-35.3594 103.499-34.088 101.456-31.5454 99.6499-29.3354 98.6162-26.4601 98.3548-22.9194ZM153.361-38.9951 153.005-34.4683C150.438-34.4683 148.062-33.3633 145.876-31.1533 143.832-29.1097 142.287-26.3888 141.242-22.9907L141.242-1.604 136.786-1.604 136.786-38.104 141.099-38.104 141.099-28.6226C142.525-32.2583 144.45-34.9792 146.874-36.7852 148.87-38.2585 151.032-38.9951 153.361-38.9951ZM192.3-19.4976 165.816-19.4976C165.816-14.3885 167.052-10.4557 169.523-7.69922 171.591-5.41797 174.229-4.27734 177.437-4.27734 182.688-4.27734 186.134-6.89128 187.773-12.1191L192.015-10.5151C189.496-3.98031 184.613-0.712891 177.365-0.712891 172.256-0.712891 168.228-2.64958 165.282-6.52295 162.668-9.94482 161.361-14.3647 161.361-19.7827 161.361-25.9611 163.036-30.8444 166.387-34.4326 169.214-37.4743 172.743-38.9951 176.973-38.9951 181.797-38.9951 185.635-37.1297 188.486-33.3989 191.029-30.0721 192.3-25.8304 192.3-20.6738ZM187.773-22.9194C187.441-27.1492 186.205-30.3573 184.066-32.5435 182.237-34.4207 179.896-35.3594 177.044-35.3594 173.765-35.3594 171.104-34.088 169.06-31.5454 167.254-29.3354 166.22-26.4601 165.959-22.9194ZM208.775-38.104 208.775-31.3315C212.862-36.4406 217.306-38.9951 222.106-38.9951 225.409-38.9951 227.987-37.9614 229.841-35.894 231.504-34.0643 232.336-31.6642 232.336-28.6938L232.336-1.604 227.738-1.604 227.738-26.8047C227.738-32.1989 225.48-34.896 220.965-34.896 216.735-34.896 212.719-32.3652 208.917-27.3037L208.917-1.604 204.39-1.604 204.39-38.104ZM273.484-28.5513 269.028-27.2324C267.721-32.6029 264.632-35.2881 259.761-35.2881 256.173-35.2881 253.404-33.7673 251.456-30.7256 249.745-28.0166 248.889-24.4165 248.889-19.9253 248.889-14.6974 250.006-10.7052 252.24-7.94873 254.141-5.59619 256.648-4.41992 259.761-4.41992 264.894-4.41992 268.114-7.15267 269.421-12.6182L273.769-11.1567C271.488-4.19417 266.818-0.712891 259.761-0.712891 254.723-0.712891 250.79-2.64958 247.963-6.52295 245.467-9.92106 244.22-14.341 244.22-19.7827 244.22-26.0086 245.848-30.8919 249.103-34.4326 251.907-37.4743 255.46-38.9951 259.761-38.9951 263.349-38.9951 266.355-37.9971 268.779-36.001 270.989-34.2187 272.557-31.7355 273.484-28.5513ZM313.186-19.4976 286.702-19.4976C286.702-14.3885 287.937-10.4557 290.409-7.69922 292.476-5.41797 295.114-4.27734 298.322-4.27734 303.574-4.27734 307.019-6.89128 308.659-12.1191L312.901-10.5151C310.382-3.98031 305.498-0.712891 298.251-0.712891 293.142-0.712891 289.114-2.64958 286.167-6.52295 283.553-9.94482 282.246-14.3647 282.246-19.7827 282.246-25.9611 283.922-30.8444 287.272-34.4326 290.1-37.4743 293.629-38.9951 297.859-38.9951 302.682-38.9951 306.52-37.1297 309.372-33.3989 311.914-30.0721 313.186-25.8304 313.186-20.6738ZM308.659-22.9194C308.326-27.1492 307.09-30.3573 304.952-32.5435 303.122-34.4207 300.781-35.3594 297.93-35.3594 294.651-35.3594 291.989-34.088 289.945-31.5454 288.139-29.3354 287.106-26.4601 286.844-22.9194Z" fill="#202324" fill-rule="nonzero" fill-opacity="1" transform="matrix(1 0 0 1 65.5479 111)"/><path d="M42.4526-54.8213 42.4526-50.6509 25.3076-50.6509 25.3076-1.604 20.4956-1.604 20.4956-50.6509 3.42187-50.6509 3.42187-54.8213ZM58.2402-55.7837 58.2402-31.4741C62.375-36.4881 66.7711-38.9951 71.4287-38.9951 74.708-38.9951 77.2863-37.9614 79.1636-35.894 80.827-34.0643 81.6587-31.688 81.6587-28.7651L81.6587-1.604 77.0605-1.604 77.0605-26.8047C77.0605-32.1989 74.8031-34.896 70.2881-34.896 66.1058-34.896 62.0898-32.3652 58.2402-27.3037L58.2402-1.604 53.7134-1.604 53.7134-55.7837ZM112.684-38.9951 112.327-34.4683C109.761-34.4683 107.385-33.3633 105.199-31.1533 103.155-29.1097 101.61-26.3888 100.565-22.9907L100.565-1.604 96.1092-1.604 96.1092-38.104 100.422-38.104 100.422-28.6226C101.848-32.2583 103.773-34.9792 106.197-36.7852 108.193-38.2585 110.355-38.9951 112.684-38.9951ZM151.623-19.4976 125.139-19.4976C125.139-14.3885 126.375-10.4557 128.846-7.69922 130.914-5.41797 133.551-4.27734 136.759-4.27734 142.011-4.27734 145.457-6.89128 147.096-12.1191L151.338-10.5151C148.819-3.98031 143.936-0.712891 136.688-0.712891 131.579-0.712891 127.551-2.64958 124.605-6.52295 121.991-9.94482 120.684-14.3647 120.684-19.7827 120.684-25.9611 122.359-30.8444 125.71-34.4326 128.537-37.4743 132.066-38.9951 136.296-38.9951 141.12-38.9951 144.958-37.1297 147.809-33.3989 150.352-30.0721 151.623-25.8304 151.623-20.6738ZM147.096-22.9194C146.764-27.1492 145.528-30.3573 143.389-32.5435 141.56-34.4207 139.219-35.3594 136.367-35.3594 133.088-35.3594 130.427-34.088 128.383-31.5454 126.577-29.3354 125.543-26.4601 125.282-22.9194ZM162.68-29.6206C164.866-35.8703 169.654-38.9951 177.044-38.9951 185.67-38.9951 189.983-34.9554 189.983-26.876L189.983-14.0083C189.983-9.13688 190.28-5.00212 190.874-1.604L186.633-1.604C186.324-3.00602 186.051-5.14469 185.813-8.02002 182.605-3.1486 178.209-0.712891 172.624-0.712891 168.751-0.712891 165.793-1.82975 163.749-4.06348 162.014-5.94075 161.147-8.3527 161.147-11.2993 161.147-17.9054 165.258-21.8976 173.48-23.2759 176.688-23.8224 180.728-24.2145 185.599-24.4521L185.599-26.4126C185.599-29.882 184.839-32.2939 183.318-33.6484 181.987-34.8366 179.872-35.4307 176.973-35.4307 171.745-35.4307 168.395-32.9831 166.921-28.0879ZM185.599-21.1016C181.94-21.0303 178.221-20.6382 174.442-19.9253 168.597-18.7371 165.674-15.9331 165.674-11.5132 165.674-9.13688 166.434-7.30713 167.955-6.02393 169.31-4.85954 171.127-4.27734 173.409-4.27734 178.304-4.27734 182.367-6.91504 185.599-12.1904ZM232.122-55.7837 232.122-1.604 227.738-1.604 227.738-7.23584C225.029-2.88721 221.357-0.712891 216.723-0.712891 212.137-0.712891 208.478-2.64958 205.745-6.52295 203.274-10.0161 202.038-14.5073 202.038-19.9966 202.038-26.2463 203.594-31.1177 206.707-34.6108 209.298-37.5337 212.565-38.9951 216.51-38.9951 221.072-38.9951 224.767-36.8683 227.595-32.6147L227.595-55.7837ZM227.595-27.7314C225.029-32.6029 221.571-35.0386 217.222-35.0386 213.848-35.0386 211.21-33.5653 209.309-30.6186 207.575-27.9572 206.707-24.3927 206.707-19.9253 206.707-14.7687 207.884-10.8122 210.236-8.05566 212.161-5.75065 214.609-4.59814 217.579-4.59814 221.571-4.59814 224.91-6.96256 227.595-11.6914Z" fill="#202324" fill-rule="nonzero" fill-opacity="1" transform="matrix(1 0 0 1 104.804 199)"/></g></g></g><path d="M1478 621.501C1478 598.028 1497.03 579 1520.5 579L1908.5 579C1931.97 579 1951 598.028 1951 621.501L1951 791.499C1951 814.972 1931.97 834 1908.5 834L1520.5 834C1497.03 834 1478 814.972 1478 791.499Z" fill="url(#fill26)" fill-rule="evenodd"/><text fill="#202324" fill-opacity="1" font-family="Yu Gothic,Yu Gothic_MSFontService,sans-serif" font-style="normal" font-variant="normal" font-weight="400" font-stretch="normal" font-size="73" text-anchor="start" direction="ltr" writing-mode="lr-tb" unicode-bidi="normal" text-decoration="none" transform="matrix(1 0 0 1 1555.55 685)">Inference</text><text fill="#202324" fill-opacity="1" font-family="Yu Gothic,Yu Gothic_MSFontService,sans-serif" font-style="normal" font-variant="normal" font-weight="400" font-stretch="normal" font-size="73" text-anchor="start" direction="ltr" writing-mode="lr-tb" unicode-bidi="normal" text-decoration="none" transform="matrix(1 0 0 1 1594.8 773)">Thread</text><g clip-path="url(#clip27)" filter="url(#fx13)" transform="translate(2060 567)"><g><g><path d="M22 64.3756C22 40.9031 41.0282 21.8749 64.5006 21.8749L451.499 21.8749C474.972 21.8749 494 40.9031 494 64.3756L494 234.374C494 257.847 474.972 276.875 451.499 276.875L64.5006 276.875C41.0282 276.875 22 257.847 22 234.374Z" fill="#FF0000" fill-rule="evenodd" fill-opacity="1"/></g></g></g><g filter="url(#fx14)" transform="translate(2113 584)"><g><g><path d="M42.4526-54.8213 42.4526-50.6509 25.3076-50.6509 25.3076-1.604 20.4956-1.604 20.4956-50.6509 3.42187-50.6509 3.42187-54.8213ZM70.2881-38.9951 69.9316-34.4683C67.3652-34.4683 64.9889-33.3633 62.8027-31.1533 60.7591-29.1097 59.2145-26.3888 58.1689-22.9907L58.1689-1.604 53.7134-1.604 53.7134-38.104 58.0264-38.104 58.0264-28.6226C59.4521-32.2583 61.3769-34.9792 63.8008-36.7852 65.7969-38.2585 67.9593-38.9951 70.2881-38.9951ZM79.6068-29.6206C81.793-35.8703 86.5812-38.9951 93.9715-38.9951 102.597-38.9951 106.91-34.9554 106.91-26.876L106.91-14.0083C106.91-9.13688 107.208-5.00212 107.802-1.604L103.56-1.604C103.251-3.00602 102.978-5.14469 102.74-8.02002 99.5321-3.1486 95.1359-0.712891 89.5516-0.712891 85.6782-0.712891 82.7197-1.82975 80.6761-4.06348 78.9414-5.94075 78.0741-8.3527 78.0741-11.2993 78.0741-17.9054 82.1851-21.8976 90.4071-23.2759 93.6151-23.8224 97.6548-24.2145 102.526-24.4521L102.526-26.4126C102.526-29.882 101.766-32.2939 100.245-33.6484 98.9142-34.8366 96.7993-35.4307 93.9002-35.4307 88.6724-35.4307 85.3218-32.9831 83.8485-28.0879ZM102.526-21.1016C98.8667-21.0303 95.1478-20.6382 91.3695-19.9253 85.5238-18.7371 82.6009-15.9331 82.6009-11.5132 82.6009-9.13688 83.3613-7.30713 84.8822-6.02393 86.2366-4.85954 88.0545-4.27734 90.3358-4.27734 95.2309-4.27734 99.2944-6.91504 102.526-12.1904ZM125.844-38.104 125.844-1.604 121.318-1.604 121.318-38.104ZM126.914-52.7895 126.914-45.9814 120.213-45.9814 120.213-52.7895ZM145.181-38.104 145.181-31.3315C149.268-36.4406 153.712-38.9951 158.512-38.9951 161.815-38.9951 164.393-37.9614 166.247-35.894 167.91-34.0643 168.742-31.6642 168.742-28.6938L168.742-1.604 164.144-1.604 164.144-26.8047C164.144-32.1989 161.886-34.896 157.371-34.896 153.142-34.896 149.126-32.3652 145.324-27.3037L145.324-1.604 140.797-1.604 140.797-38.104ZM187.719-38.104 187.719-1.604 183.193-1.604 183.193-38.104ZM188.789-52.7895 188.789-45.9814 182.088-45.9814 182.088-52.7895ZM207.056-38.104 207.056-31.3315C211.143-36.4406 215.587-38.9951 220.387-38.9951 223.69-38.9951 226.268-37.9614 228.122-35.894 229.785-34.0643 230.617-31.6642 230.617-28.6938L230.617-1.604 226.019-1.604 226.019-26.8047C226.019-32.1989 223.761-34.896 219.246-34.896 215.017-34.896 211.001-32.3652 207.199-27.3037L207.199-1.604 202.672-1.604 202.672-38.104ZM274.617-42.5596 274.26-38.3892C272.312-38.3892 270.732-38.1278 269.52-37.605 268.545-37.1772 267.547-36.4643 266.526-35.4663 269.092-33.3989 270.375-30.5592 270.375-26.9473 270.375-23.0264 268.949-19.9491 266.098-17.7153 263.698-15.8381 260.668-14.8994 257.008-14.8994 254.822-14.8994 252.802-15.2796 250.949-16.04 248.525-14.6855 247.313-13.236 247.313-11.6914 247.313-10.3844 247.836-9.49333 248.882-9.01807 249.903-8.56657 251.959-8.18636 255.048-7.87744L262.213-7.16455C267.155-6.64176 270.577-5.53678 272.478-3.84961 273.904-2.59017 274.617-0.819824 274.617 1.46143 274.617 4.66943 273.001 7.20019 269.769 9.05371 266.728 10.7646 262.652 11.6201 257.543 11.6201 252.101 11.6201 247.943 10.6934 245.068 8.83984 242.62 7.24772 241.396 5.18034 241.396 2.6377 241.396 0.807943 242.145-0.831706 243.642-2.28125 244.925-3.54069 246.66-4.52685 248.846-5.23975 245.139-6.04769 243.285-7.82991 243.285-10.5864 243.285-12.9865 244.972-15.339 248.347-17.644 245.281-19.854 243.749-22.9313 243.749-26.876 243.749-30.7256 245.222-33.8029 248.169-36.1079 250.616-38.0327 253.587-38.9951 257.08-38.9951 259.812-38.9951 262.153-38.4367 264.102-37.3198 265.504-39.2921 267.084-40.6823 268.842-41.4902 270.411-42.2031 272.336-42.5596 274.617-42.5596ZM257.08-35.7871C254.347-35.7871 252.125-34.9079 250.414-33.1494 248.846-31.5335 248.062-29.4424 248.062-26.876 248.062-24.0006 249.048-21.7432 251.02-20.1035 252.636-18.7728 254.644-18.1074 257.044-18.1074 259.801-18.1074 262.022-18.9748 263.71-20.7095 265.278-22.3016 266.062-24.3571 266.062-26.876 266.062-29.8226 265.064-32.1157 263.068-33.7554 261.452-35.1099 259.456-35.7871 257.08-35.7871ZM252.695-4.38428C247.943-3.07731 245.567-0.926758 245.567 2.06738 245.567 4.27734 246.838 5.94075 249.381 7.05762 251.472 7.96061 254.24 8.41211 257.686 8.41211 262.011 8.41211 265.326 7.7111 267.631 6.30908 269.508 5.14469 270.446 3.68327 270.446 1.9248 270.446 0.308919 269.757-0.902995 268.379-1.71094 266.953-2.54264 264.529-3.13672 261.108-3.49316Z" fill="#202324" fill-rule="nonzero" fill-opacity="1" transform="matrix(1 0 0 1 66.085 111)"/><path d="M42.4526-54.8213 42.4526-50.6509 25.3076-50.6509 25.3076-1.604 20.4956-1.604 20.4956-50.6509 3.42187-50.6509 3.42187-54.8213ZM58.2402-55.7837 58.2402-31.4741C62.375-36.4881 66.7711-38.9951 71.4287-38.9951 74.708-38.9951 77.2863-37.9614 79.1636-35.894 80.827-34.0643 81.6587-31.688 81.6587-28.7651L81.6587-1.604 77.0605-1.604 77.0605-26.8047C77.0605-32.1989 74.8031-34.896 70.2881-34.896 66.1058-34.896 62.0898-32.3652 58.2402-27.3037L58.2402-1.604 53.7134-1.604 53.7134-55.7837ZM112.684-38.9951 112.327-34.4683C109.761-34.4683 107.385-33.3633 105.199-31.1533 103.155-29.1097 101.61-26.3888 100.565-22.9907L100.565-1.604 96.1092-1.604 96.1092-38.104 100.422-38.104 100.422-28.6226C101.848-32.2583 103.773-34.9792 106.197-36.7852 108.193-38.2585 110.355-38.9951 112.684-38.9951ZM151.623-19.4976 125.139-19.4976C125.139-14.3885 126.375-10.4557 128.846-7.69922 130.914-5.41797 133.551-4.27734 136.759-4.27734 142.011-4.27734 145.457-6.89128 147.096-12.1191L151.338-10.5151C148.819-3.98031 143.936-0.712891 136.688-0.712891 131.579-0.712891 127.551-2.64958 124.605-6.52295 121.991-9.94482 120.684-14.3647 120.684-19.7827 120.684-25.9611 122.359-30.8444 125.71-34.4326 128.537-37.4743 132.066-38.9951 136.296-38.9951 141.12-38.9951 144.958-37.1297 147.809-33.3989 150.352-30.0721 151.623-25.8304 151.623-20.6738ZM147.096-22.9194C146.764-27.1492 145.528-30.3573 143.389-32.5435 141.56-34.4207 139.219-35.3594 136.367-35.3594 133.088-35.3594 130.427-34.088 128.383-31.5454 126.577-29.3354 125.543-26.4601 125.282-22.9194ZM162.68-29.6206C164.866-35.8703 169.654-38.9951 177.044-38.9951 185.67-38.9951 189.983-34.9554 189.983-26.876L189.983-14.0083C189.983-9.13688 190.28-5.00212 190.874-1.604L186.633-1.604C186.324-3.00602 186.051-5.14469 185.813-8.02002 182.605-3.1486 178.209-0.712891 172.624-0.712891 168.751-0.712891 165.793-1.82975 163.749-4.06348 162.014-5.94075 161.147-8.3527 161.147-11.2993 161.147-17.9054 165.258-21.8976 173.48-23.2759 176.688-23.8224 180.728-24.2145 185.599-24.4521L185.599-26.4126C185.599-29.882 184.839-32.2939 183.318-33.6484 181.987-34.8366 179.872-35.4307 176.973-35.4307 171.745-35.4307 168.395-32.9831 166.921-28.0879ZM185.599-21.1016C181.94-21.0303 178.221-20.6382 174.442-19.9253 168.597-18.7371 165.674-15.9331 165.674-11.5132 165.674-9.13688 166.434-7.30713 167.955-6.02393 169.31-4.85954 171.127-4.27734 173.409-4.27734 178.304-4.27734 182.367-6.91504 185.599-12.1904ZM232.122-55.7837 232.122-1.604 227.738-1.604 227.738-7.23584C225.029-2.88721 221.357-0.712891 216.723-0.712891 212.137-0.712891 208.478-2.64958 205.745-6.52295 203.274-10.0161 202.038-14.5073 202.038-19.9966 202.038-26.2463 203.594-31.1177 206.707-34.6108 209.298-37.5337 212.565-38.9951 216.51-38.9951 221.072-38.9951 224.767-36.8683 227.595-32.6147L227.595-55.7837ZM227.595-27.7314C225.029-32.6029 221.571-35.0386 217.222-35.0386 213.848-35.0386 211.21-33.5653 209.309-30.6186 207.575-27.9572 206.707-24.3927 206.707-19.9253 206.707-14.7687 207.884-10.8122 210.236-8.05566 212.161-5.75065 214.609-4.59814 217.579-4.59814 221.571-4.59814 224.91-6.96256 227.595-11.6914Z" fill="#202324" fill-rule="nonzero" fill-opacity="1" transform="matrix(1 0 0 1 85.2891 199)"/></g></g></g><path d="M2082 624.501C2082 601.028 2101.03 582 2124.5 582L2511.5 582C2534.97 582 2554 601.028 2554 624.501L2554 794.499C2554 817.972 2534.97 837 2511.5 837L2124.5 837C2101.03 837 2082 817.972 2082 794.499Z" fill="url(#fill28)" fill-rule="evenodd"/><text fill="#202324" fill-opacity="1" font-family="Yu Gothic,Yu Gothic_MSFontService,sans-serif" font-style="normal" font-variant="normal" font-weight="400" font-stretch="normal" font-size="73" text-anchor="start" direction="ltr" writing-mode="lr-tb" unicode-bidi="normal" text-decoration="none" transform="matrix(1 0 0 1 2179.08 689)">Training</text><text fill="#202324" fill-opacity="1" font-family="Yu Gothic,Yu Gothic_MSFontService,sans-serif" font-style="normal" font-variant="normal" font-weight="400" font-stretch="normal" font-size="73" text-anchor="start" direction="ltr" writing-mode="lr-tb" unicode-bidi="normal" text-decoration="none" transform="matrix(1 0 0 1 2198.29 777)">Thread</text></g></g></svg>
